Coordinates
version=1
nRows=15
nColumns=42
inDegrees=yes

Units are S.I. units (second, meters, Newtons, ...)
If the header above contains a line with 'inDegrees', this indicates whether rotational values are in degrees (yes) or radians (no).

endheader
time	pelvis_tilt	pelvis_list	pelvis_rotation	pelvis_tx	pelvis_ty	pelvis_tz	hip_flexion_r	hip_adduction_r	hip_rotation_r	knee_angle_r	knee_adduction_r	knee_angle_r_beta	ankle_angle_r	subtalar_angle_r	mtp_angle_r	hip_flexion_l	hip_adduction_l	hip_rotation_l	knee_angle_l	knee_adduction_l	knee_angle_l_beta	ankle_angle_l	subtalar_angle_l	mtp_angle_l	lumbar_extension	lumbar_bending	lumbar_rotation	arm_flex_r	arm_add_r	arm_rot_r	elbow_flex_r	pro_sup_r	wrist_flex_r	wrist_dev_r	arm_flex_l	arm_add_l	arm_rot_l	elbow_flex_l	pro_sup_l	wrist_flex_l	wrist_dev_l
      3.11000000	     23.61759942	      1.68025761	      2.88442275	      0.91206297	      0.94743926	     -0.56224854	      9.45599338	      0.47066380	    -22.88212384	     38.15085168	    -17.34966043	      0.66585797	     12.63655691	     22.59646586	     -7.50014537	    -20.15898752	      8.95929186	     -0.53154682	     23.84979825	     -1.60016106	      0.41625751	     17.12096538	    -16.59112272	     -7.50014537	    -38.53864744	     -4.06644234	      2.68094663	      7.46014470	    -11.67364810	    -21.59528690	     28.76711509	     90.00000001	      0.00000000	      0.00000000	      0.38508377	    -21.63264365	      6.72511198	     68.98196727	     90.00000001	      0.00000000	      0.00000000
      3.12000000	     23.60617116	      1.67316048	      2.90439448	      0.91630684	      0.94711943	     -0.56334152	      9.55086418	      0.62708458	    -23.14497666	     37.18761562	    -17.17627933	      0.64904633	     12.70753980	     22.90171351	     -7.50014343	    -20.52613273	      9.02163938	     -0.48276291	     23.68756859	     -1.61658698	      0.41342606	     17.27541652	    -16.57215910	     -7.50014343	    -38.58564412	     -4.01214832	      2.62690711	      7.15295825	    -11.69370039	    -21.75397264	     28.58374574	     90.00000001	      0.00000000	      0.00000000	      0.36151535	    -21.57148501	      6.77128933	     69.00007632	     90.00000001	      0.00000000	      0.00000000
      3.13000000	     23.51656706	      1.75142705	      2.94438897	      0.92062689	      0.94665506	     -0.56444250	      9.74614154	      0.63379861	    -23.42570474	     36.48788867	    -16.97268058	      0.63683379	     12.79249480	     23.05741708	     -7.50014332	    -20.78175529	      9.19271192	     -0.45831794	     23.59142397	     -1.71560028	      0.41174802	     17.36255423	    -16.72082438	     -7.50014332	    -38.52268847	     -4.06735783	      2.49058352	      6.83074335	    -11.73818892	    -21.84627309	     28.39895260	     90.00000001	      0.00000000	      0.00000000	      0.32033306	    -21.49569604	      6.81556924	     69.01399878	     90.00000001	      0.00000000	      0.00000000
      3.14000000	     23.59009544	      1.75383273	      3.06159988	      0.92517549	      0.94632472	     -0.56553388	      9.74896431	      0.66111089	    -25.02587606	     35.46167683	    -17.48099652	      0.61892302	     12.73319776	     26.04686203	     -7.50013577	    -21.27692079	      9.21610356	     -0.26143908	     23.42771771	     -1.72999334	      0.40889081	     17.59470745	    -16.53678155	     -7.50013577	    -38.61276513	     -3.99892146	      2.39251052	      6.64616814	    -11.66754663	    -22.61354539	     27.93009670	     90.00000001	      0.00000000	      0.00000000	      0.29638993	    -21.51073386	      7.09163478	     69.07313029	     90.00000001	      0.00000000	      0.00000000
      3.15000000	     23.54337752	      1.82087225	      3.10045303	      0.92955977	      0.94583538	     -0.56666114	      9.83886490	      0.66612766	    -25.26490582	     34.95820492	    -17.28135097	      0.61013578	     12.81891785	     26.05185822	     -7.50013546	    -21.56976862	      9.37881007	     -0.25197487	     23.35840282	     -1.84562011	      0.40768104	     17.71858172	    -16.63395900	     -7.50013546	    -38.61027850	     -4.01858262	      2.27832702	      6.32778969	    -11.70630292	    -22.69335694	     27.78100054	     90.00000001	      0.00000000	      0.00000000	      0.24877525	    -21.41908398	      7.13119956	     69.08019182	     90.00000001	      0.00000000	      0.00000000
      3.16000000	     23.57923730	      1.82604752	      3.22277550	      0.93415288	      0.94543383	     -0.56773766	      9.80560381	      0.72129203	    -26.39550418	     34.23561348	    -17.56895257	      0.59752418	     12.76638685	     27.81653293	     -7.50012540	    -22.01836504	      9.41604568	      0.08246109	     23.23788544	     -1.83659322	      0.40557761	     17.91005536	    -16.59991269	     -7.50012540	    -38.66336987	     -3.93752364	      2.18037341	      6.18713569	    -11.62460221	    -23.65065110	     27.35133780	     90.00000001	      0.00000000	      0.00000000	      0.25685380	    -21.38281386	      7.37705650	     69.11807363	     90.00000001	      0.00000000	      0.00000000
      3.17000000	     23.52891326	      1.87909586	      3.27100314	      0.93866948	      0.94487878	     -0.56881797	      9.83294536	      0.73391527	    -26.63751765	     33.90286661	    -17.38000051	      0.59171665	     12.78315073	     27.79133362	     -7.50012510	    -22.30768812	      9.55568190	      0.11337625	     23.20072057	     -1.93865894	      0.40492896	     18.03057980	    -16.66490552	     -7.50012510	    -38.64158331	     -3.93675491	      2.07759838	      5.88111174	    -11.65433406	    -23.72221864	     27.20672191	     90.00000001	      0.00000000	      0.00000000	      0.21210565	    -21.28164787	      7.41772249	     69.12243640	     90.00000001	      0.00000000	      0.00000000
      3.18000000	     23.51868075	      1.89495354	      3.35219124	      0.94323294	      0.94435705	     -0.56987117	      9.77239042	      0.81079248	    -27.01272856	     33.53888275	    -17.32251482	      0.58536393	     12.73237613	     27.86058054	     -7.50012468	    -22.67085351	      9.63442826	      0.30210676	     23.12816591	     -2.00854309	      0.40366265	     18.19427186	    -16.72852319	     -7.50012468	    -38.66610065	     -3.87988577	      2.00572030	      5.61046806	    -11.69310613	    -23.82290328	     27.01320676	     90.00000001	      0.00000000	      0.00000000	      0.22076906	    -21.15777741	      7.48013107	     69.13720958	     90.00000001	      0.00000000	      0.00000000
      3.19000000	     23.54559187	      1.89810747	      3.46420236	      0.94795359	      0.94386920	     -0.57086701	      9.65051050	      0.87113744	    -27.81622630	     33.16352311	    -17.46002002	      0.57881267	     12.40368312	     28.51621919	     -7.50012247	    -23.13805303	      9.64846312	      0.77420229	     22.96233116	     -1.90028204	      0.40076828	     18.44562677	    -16.76851905	     -7.50012247	    -38.70261302	     -3.81077242	      1.91387122	      5.40650109	    -11.69505723	    -24.13519189	     26.64044924	     90.00000001	      0.00000000	      0.00000000	      0.22851907	    -21.08201874	      7.64451353	     69.11404366	     90.00000001	      0.00000000	      0.00000000
      3.20000000	     23.54096440	      1.96287844	      3.52981623	      0.95275225	      0.94323245	     -0.57189457	      9.56949770	      0.80763414	    -28.75394363	     32.92687077	    -17.65698975	      0.57468231	     12.38347139	     29.81843434	     -7.50011460	    -23.52290956	      9.78647769	      0.89142176	     22.89869842	     -2.00887879	      0.39965768	     18.59818601	    -16.81105997	     -7.50011460	    -38.69759456	     -3.81189273	      1.83966793	      5.31699729	    -11.64022670	    -25.06736833	     26.17750313	     90.00000001	      0.00000000	      0.00000000	      0.22980883	    -21.04152331	      7.94166086	     69.13656113	     90.00000001	      0.00000000	      0.00000000
      3.21000000	     23.49830877	      2.00557495	      3.56437763	      0.95756080	      0.94254015	     -0.57285037	      9.44767019	      0.84423265	    -28.95715258	     32.82887017	    -17.55477197	      0.57297187	     12.37800881	     29.75731926	     -7.50011423	    -23.83790064	      9.89698534	      0.90963404	     22.88513428	     -2.10284938	      0.39942094	     18.72246911	    -16.83560739	     -7.50011423	    -38.65498327	     -3.81063841	      1.77335389	      5.03287172	    -11.65243803	    -25.14226497	     26.05563818	     90.00000001	      0.00000000	      0.00000000	      0.16706621	    -20.91105258	      7.98724523	     69.13820374	     90.00000001	      0.00000000	      0.00000000
      3.22000000	     23.54472978	      2.01277986	      3.61643597	      0.96245806	      0.94191839	     -0.57373645	      9.19739965	      0.92834066	    -29.41109502	     32.71489276	    -17.57837377	      0.57098259	     12.30398945	     29.74502031	     -7.50011328	    -24.33125869	      9.94621736	      1.10958451	     22.72233678	     -2.12118352	      0.39657959	     18.97723205	    -16.85211033	     -7.50011328	    -38.71304577	     -3.76572320	      1.75952795	      4.80291574	    -11.70349424	    -25.31291345	     25.85869885	     90.00000001	      0.00000000	      0.00000000	      0.21608491	    -20.76819531	      8.05511763	     69.16312017	     90.00000001	      0.00000000	      0.00000000
      3.23000000	     23.52021619	      2.04689328	      3.64159839	      0.96744599	      0.94119052	     -0.57460393	      8.97330681	      0.97107774	    -29.67292483	     32.66339582	    -17.51008827	      0.57008380	     12.26124731	     29.75398074	     -7.50011264	    -24.70441479	     10.04199026	      1.18412703	     22.65674750	     -2.18597376	      0.39543484	     19.15064709	    -16.85926700	     -7.50011264	    -38.67838579	     -3.76503830	      1.72146781	      4.56067324	    -11.72445715	    -25.43340363	     25.70563853	     90.00000001	      0.00000000	      0.00000000	      0.15967319	    -20.64952234	      8.12172166	     69.16150909	     90.00000001	      0.00000000	      0.00000000
      3.24000000	     23.53848827	      2.06521023	      3.66234484	      0.97253404	      0.94045179	     -0.57542194	      8.66666825	      1.04512172	    -29.98184426	     32.61429411	    -17.48698977	      0.56922682	     12.22363275	     29.78783730	     -7.50011180	    -25.16495329	     10.10476612	      1.29742027	     22.52632561	     -2.21314611	      0.39315855	     19.37742519	    -16.84838651	     -7.50011180	    -38.67718854	     -3.74797827	      1.70922352	      4.34394130	    -11.75379915	    -25.59558564	     25.52094284	     90.00000001	      0.00000000	      0.00000000	      0.15048512	    -20.52811539	      8.20371553	     69.17535246	     90.00000001	      0.00000000	      0.00000000
      3.25000000	     23.43624800	      2.10522767	      3.67866036	      0.97766130	      0.93954296	     -0.57615401	      8.45692082	      1.10980330	    -30.08686839	     32.61556368	    -17.41275486	      0.56924897	     12.21001155	     29.77899848	     -7.50011153	    -25.42653818	     10.18690748	      1.32091409	     22.53602120	     -2.24727449	      0.39332777	     19.46773437	    -16.84357008	     -7.50011153	    -38.55702123	     -3.77411946	      1.65925476	      4.09410629	    -11.73872570	    -25.66014279	     25.41131577	     90.00000001	      0.00000000	      0.00000000	      0.04732089	    -20.41703817	      8.25796600	     69.16532641	     90.00000001	      0.00000000	      0.00000000
